<?xml version="1.0" standalone="no"?>
<svg xmlns:xlink="http://www.w3.org/1999/xlink" id="wave" style="transform:rotate(180deg); transition: 0.3s" viewBox="0 0 1440 110" version="1.1" xmlns="http://www.w3.org/2000/svg"><defs><linearGradient id="sw-gradient-0" x1="0" x2="0" y1="1" y2="0"><stop stop-color="rgba(81, 229, 255, 1)" offset="0%"/><stop stop-color="rgba(81, 229, 255, 1)" offset="100%"/></linearGradient></defs><path style="transform:translate(0, 0px); opacity:1" fill="url(#sw-gradient-0)" d="M0,22L40,23.8C80,26,160,29,240,31.2C320,33,400,33,480,36.7C560,40,640,48,720,56.8C800,66,880,77,960,75.2C1040,73,1120,59,1200,44C1280,29,1360,15,1440,11C1520,7,1600,15,1680,20.2C1760,26,1840,29,1920,42.2C2000,55,2080,77,2160,78.8C2240,81,2320,62,2400,51.3C2480,40,2560,37,2640,34.8C2720,33,2800,33,2880,40.3C2960,48,3040,62,3120,62.3C3200,62,3280,48,3360,38.5C3440,29,3520,26,3600,34.8C3680,44,3760,66,3840,64.2C3920,62,4000,37,4080,38.5C4160,40,4240,70,4320,80.7C4400,92,4480,84,4560,75.2C4640,66,4720,55,4800,42.2C4880,29,4960,15,5040,18.3C5120,22,5200,44,5280,56.8C5360,70,5440,73,5520,71.5C5600,70,5680,62,5720,58.7L5760,55L5760,110L5720,110C5680,110,5600,110,5520,110C5440,110,5360,110,5280,110C5200,110,5120,110,5040,110C4960,110,4880,110,4800,110C4720,110,4640,110,4560,110C4480,110,4400,110,4320,110C4240,110,4160,110,4080,110C4000,110,3920,110,3840,110C3760,110,3680,110,3600,110C3520,110,3440,110,3360,110C3280,110,3200,110,3120,110C3040,110,2960,110,2880,110C2800,110,2720,110,2640,110C2560,110,2480,110,2400,110C2320,110,2240,110,2160,110C2080,110,2000,110,1920,110C1840,110,1760,110,1680,110C1600,110,1520,110,1440,110C1360,110,1280,110,1200,110C1120,110,1040,110,960,110C880,110,800,110,720,110C640,110,560,110,480,110C400,110,320,110,240,110C160,110,80,110,40,110L0,110Z"/></svg>